<svg width="70" height="70" viewBox="0 0 70 70" fill="none" xmlns="http://www.w3.org/2000/svg">
<path d="M48.125 27.4166L21.875 12.2791M9.5375 20.3L35 35.0291L60.4625 20.3M35 64.4V35M61.25 46.6666V23.3333C61.249 22.3104 60.9789 21.3057 60.467 20.42C59.9551 19.5344 59.2192 18.799 58.3333 18.2875L37.9167 6.62081C37.0299 6.10883 36.024 5.83929 35 5.83929C33.976 5.83929 32.9701 6.10883 32.0833 6.62081L11.6667 18.2875C10.7808 18.799 10.0449 19.5344 9.53301 20.42C9.02108 21.3057 8.75105 22.3104 8.75 23.3333V46.6666C8.75105 47.6896 9.02108 48.6943 9.53301 49.5799C10.0449 50.4656 10.7808 51.201 11.6667 51.7125L32.0833 63.3791C32.9701 63.8911 33.976 64.1607 35 64.1607C36.024 64.1607 37.0299 63.8911 37.9167 63.3791L58.3333 51.7125C59.2192 51.201 59.9551 50.4656 60.467 49.5799C60.9789 48.6943 61.249 47.6896 61.25 46.6666Z" stroke="#E8F7F2" strokeWidth="4" strokeLinecap="round" strokeLinejoin="round"/>
</svg>
