<svg width="70" height="70" viewBox="0 0 70 70" fill="none" xmlns="http://www.w3.org/2000/svg">
<path d="M61.8625 46.3458C60.007 50.7339 57.1048 54.6006 53.4096 57.608C49.7145 60.6153 45.3389 62.6717 40.6654 63.5973C35.992 64.5229 31.1629 64.2896 26.6004 62.9178C22.038 61.5459 17.881 59.0773 14.493 55.7278C11.105 52.3782 8.58904 48.2497 7.16518 43.7032C5.74133 39.1567 5.45288 34.3306 6.32507 29.6469C7.19726 24.9631 9.20353 20.5643 12.1685 16.8351C15.1334 13.1059 18.9667 10.1597 23.3333 8.25418M64.1667 35C64.1667 31.1698 63.4123 27.3771 61.9465 23.8384C60.4807 20.2997 58.3323 17.0844 55.624 14.3761C52.9156 11.6677 49.7003 9.51929 46.1616 8.05352C42.6229 6.58776 38.8302 5.83334 35 5.83334V35H64.1667Z" stroke="#E8F7F2" strokeWidth="4" strokeLinecap="round" strokeLinejoin="round"/>
</svg>
