<svg width="70" height="70" viewBox="0 0 70 70" fill="none" xmlns="http://www.w3.org/2000/svg">
<path d="M35 43.75C39.8325 43.75 43.75 39.8325 43.75 35C43.75 30.1675 39.8325 26.25 35 26.25C30.1675 26.25 26.25 30.1675 26.25 35C26.25 39.8325 30.1675 43.75 35 43.75Z" stroke="#E8F7F2" strokeWidth="4" strokeLinecap="round" strokeLinejoin="round"/>
<path d="M56.5833 43.75C56.195 44.6297 56.0792 45.6056 56.2508 46.5517C56.4223 47.4979 56.8734 48.3709 57.5458 49.0583L57.7208 49.2333C58.2632 49.7751 58.6934 50.4184 58.987 51.1266C59.2805 51.8348 59.4316 52.5938 59.4316 53.3604C59.4316 54.127 59.2805 54.8861 58.987 55.5942C58.6934 56.3024 58.2632 56.9457 57.7208 57.4875C57.179 58.0299 56.5357 58.4601 55.8275 58.7537C55.1194 59.0472 54.3603 59.1983 53.5937 59.1983C52.8271 59.1983 52.0681 59.0472 51.3599 58.7537C50.6517 58.4601 50.0084 58.0299 49.4666 57.4875L49.2916 57.3125C48.6042 56.6401 47.7312 56.189 46.785 56.0175C45.8389 55.8459 44.863 55.9618 43.9833 56.35C43.1206 56.7197 42.3849 57.3336 41.8667 58.1162C41.3485 58.8987 41.0704 59.8156 41.0666 60.7542V61.25C41.0666 62.7971 40.452 64.2808 39.3581 65.3748C38.2641 66.4688 36.7804 67.0833 35.2333 67.0833C33.6862 67.0833 32.2025 66.4688 31.1085 65.3748C30.0145 64.2808 29.4 62.7971 29.4 61.25V60.9875C29.3774 60.0221 29.0649 59.0858 28.5031 58.3004C27.9413 57.5149 27.1563 56.9167 26.25 56.5833C25.3702 56.1951 24.3944 56.0793 23.4482 56.2508C22.5021 56.4224 21.629 56.8734 20.9416 57.5458L20.7666 57.7208C20.2249 58.2632 19.5815 58.6935 18.8734 58.987C18.1652 59.2806 17.4061 59.4317 16.6395 59.4317C15.873 59.4317 15.1139 59.2806 14.4057 58.987C13.6976 58.6935 13.0542 58.2632 12.5125 57.7208C11.9701 57.1791 11.5398 56.5357 11.2463 55.8276C10.9527 55.1194 10.8016 54.3603 10.8016 53.5938C10.8016 52.8272 10.9527 52.0681 11.2463 51.3599C11.5398 50.6518 11.9701 50.0084 12.5125 49.4667L12.6875 49.2917C13.3599 48.6043 13.8109 47.7312 13.9825 46.7851C14.154 45.8389 14.0382 44.8631 13.65 43.9833C13.2802 43.1207 12.6663 42.385 11.8838 41.8667C11.1013 41.3485 10.1843 41.0704 9.24579 41.0667H8.74996C7.20286 41.0667 5.71913 40.4521 4.62517 39.3581C3.53121 38.2642 2.91663 36.7804 2.91663 35.2333C2.91663 33.6862 3.53121 32.2025 4.62517 31.1085C5.71913 30.0146 7.20286 29.4 8.74996 29.4H9.01246C9.97786 29.3774 10.9141 29.0649 11.6996 28.5032C12.485 27.9414 13.0833 27.1563 13.4166 26.25C13.8049 25.3703 13.9207 24.3944 13.7491 23.4483C13.5776 22.5021 13.1265 21.6291 12.4541 20.9417L12.2791 20.7667C11.7368 20.2249 11.3065 19.5816 11.0129 18.8734C10.7194 18.1652 10.5683 17.4062 10.5683 16.6396C10.5683 15.873 10.7194 15.1139 11.0129 14.4058C11.3065 13.6976 11.7368 13.0543 12.2791 12.5125C12.8209 11.9701 13.4642 11.5399 14.1724 11.2463C14.8805 10.9528 15.6396 10.8017 16.4062 10.8017C17.1728 10.8017 17.9319 10.9528 18.64 11.2463C19.3482 11.5399 19.9915 11.9701 20.5333 12.5125L20.7083 12.6875C21.3957 13.3599 22.2688 13.811 23.2149 13.9825C24.1611 14.1541 25.1369 14.0383 26.0166 13.65H26.25C27.1126 13.2803 27.8483 12.6664 28.3666 11.8839C28.8848 11.1013 29.1629 10.1844 29.1666 9.24584V8.75C29.1666 7.20291 29.7812 5.71917 30.8752 4.62521C31.9691 3.53125 33.4529 2.91667 35 2.91667C36.5471 2.91667 38.0308 3.53125 39.1248 4.62521C40.2187 5.71917 40.8333 7.20291 40.8333 8.75V9.0125C40.837 9.95105 41.1151 10.868 41.6334 11.6505C42.1516 12.433 42.8873 13.0469 43.75 13.4167C44.6297 13.8049 45.6055 13.9207 46.5517 13.7492C47.4978 13.5776 48.3709 13.1266 49.0583 12.4542L49.2333 12.2792C49.7751 11.7368 50.4184 11.3065 51.1266 11.013C51.8347 10.7194 52.5938 10.5683 53.3604 10.5683C54.127 10.5683 54.886 10.7194 55.5942 11.013C56.3024 11.3065 56.9457 11.7368 57.4875 12.2792C58.0298 12.8209 58.4601 13.4643 58.7536 14.1724C59.0472 14.8806 59.1983 15.6397 59.1983 16.4063C59.1983 17.1728 59.0472 17.9319 58.7536 18.6401C58.4601 19.3482 58.0298 19.9916 57.4875 20.5333L57.3125 20.7083C56.6401 21.3957 56.189 22.2688 56.0175 23.215C55.8459 24.1611 55.9617 25.137 56.35 26.0167V26.25C56.7197 27.1127 57.3336 27.8484 58.1161 28.3666C58.8986 28.8848 59.8156 29.1629 60.7541 29.1667H61.25C62.7971 29.1667 64.2808 29.7813 65.3748 30.8752C66.4687 31.9692 67.0833 33.4529 67.0833 35C67.0833 36.5471 66.4687 38.0308 65.3748 39.1248C64.2808 40.2188 62.7971 40.8333 61.25 40.8333H60.9875C60.0489 40.8371 59.132 41.1152 58.3494 41.6334C57.5669 42.1516 56.953 42.8873 56.5833 43.75Z" stroke="#E8F7F2" strokeWidth="4" strokeLinecap="round" strokeLinejoin="round"/>
</svg>
